<mxfile host="app.diagrams.net" modified="2023-03-31T14:35:00.389Z" agent="Mozilla/5.0 (Macintosh; Intel Mac OS X 10_15_7) AppleWebKit/537.36 (KHTML, like Gecko) Chrome/111.0.0.0 Safari/537.36" etag="2fZGsaRuPeldHT_YsjEc" version="21.1.2" type="github">
  <diagram name="Page-1" id="aezEo4hsik3KxM54tqyB">
    <mxGraphModel dx="956" dy="535" grid="1" gridSize="10" guides="1" tooltips="1" connect="1" arrows="1" fold="1" page="1" pageScale="1" pageWidth="1654" pageHeight="1169" math="0" shadow="0">
      <root>
        <mxCell id="0" />
        <mxCell id="1" parent="0" />
        <mxCell id="TNsoEPm8zkOhASjRyVfg-1" value="Thorkill : Items" style="swimlane;whiteSpace=wrap;html=1;" vertex="1" parent="1">
          <mxGeometry x="290" y="270" width="200" height="200" as="geometry" />
        </mxCell>
        <mxCell id="TNsoEPm8zkOhASjRyVfg-3" value="name: &quot;Thorkill&quot;" style="text;html=1;align=left;verticalAlign=middle;resizable=0;points=[];autosize=1;strokeColor=none;fillColor=none;" vertex="1" parent="TNsoEPm8zkOhASjRyVfg-1">
          <mxGeometry x="10" y="40" width="110" height="30" as="geometry" />
        </mxCell>
        <mxCell id="TNsoEPm8zkOhASjRyVfg-6" value="type: &quot;Axe&quot;" style="text;html=1;align=left;verticalAlign=middle;resizable=0;points=[];autosize=1;strokeColor=none;fillColor=none;" vertex="1" parent="TNsoEPm8zkOhASjRyVfg-1">
          <mxGeometry x="10" y="80" width="80" height="30" as="geometry" />
        </mxCell>
        <mxCell id="TNsoEPm8zkOhASjRyVfg-7" value="rarity: &quot;Ultra&quot;" style="text;html=1;align=left;verticalAlign=middle;resizable=0;points=[];autosize=1;strokeColor=none;fillColor=none;" vertex="1" parent="TNsoEPm8zkOhASjRyVfg-1">
          <mxGeometry x="10" y="120" width="90" height="30" as="geometry" />
        </mxCell>
        <mxCell id="TNsoEPm8zkOhASjRyVfg-8" value="value: 8000" style="text;html=1;align=left;verticalAlign=middle;resizable=0;points=[];autosize=1;strokeColor=none;fillColor=none;" vertex="1" parent="TNsoEPm8zkOhASjRyVfg-1">
          <mxGeometry x="10" y="150" width="90" height="30" as="geometry" />
        </mxCell>
        <mxCell id="TNsoEPm8zkOhASjRyVfg-2" value="Thornforg : Adventurers" style="swimlane;whiteSpace=wrap;html=1;" vertex="1" parent="1">
          <mxGeometry x="560" y="270" width="200" height="200" as="geometry" />
        </mxCell>
        <mxCell id="TNsoEPm8zkOhASjRyVfg-9" value="name: &quot;Thornforg&quot;" style="text;html=1;align=left;verticalAlign=middle;resizable=0;points=[];autosize=1;strokeColor=none;fillColor=none;" vertex="1" parent="TNsoEPm8zkOhASjRyVfg-2">
          <mxGeometry x="10" y="40" width="120" height="30" as="geometry" />
        </mxCell>
        <mxCell id="TNsoEPm8zkOhASjRyVfg-10" value="wallet : 5000" style="text;html=1;align=left;verticalAlign=middle;resizable=0;points=[];autosize=1;strokeColor=none;fillColor=none;" vertex="1" parent="TNsoEPm8zkOhASjRyVfg-2">
          <mxGeometry x="10" y="70" width="90" height="30" as="geometry" />
        </mxCell>
        <mxCell id="TNsoEPm8zkOhASjRyVfg-12" value="buy_item(Items.value: 8000)" style="text;html=1;align=center;verticalAlign=middle;resizable=0;points=[];autosize=1;strokeColor=none;fillColor=none;" vertex="1" parent="TNsoEPm8zkOhASjRyVfg-2">
          <mxGeometry y="160" width="170" height="30" as="geometry" />
        </mxCell>
        <mxCell id="TNsoEPm8zkOhASjRyVfg-11" value="" style="endArrow=none;html=1;rounded=0;exitX=0;exitY=0.75;exitDx=0;exitDy=0;entryX=1;entryY=0.75;entryDx=0;entryDy=0;" edge="1" parent="1" source="TNsoEPm8zkOhASjRyVfg-2" target="TNsoEPm8zkOhASjRyVfg-2">
          <mxGeometry width="50" height="50" relative="1" as="geometry">
            <mxPoint x="700" y="440" as="sourcePoint" />
            <mxPoint x="750" y="390" as="targetPoint" />
          </mxGeometry>
        </mxCell>
        <mxCell id="TNsoEPm8zkOhASjRyVfg-13" value="" style="endArrow=none;html=1;rounded=0;" edge="1" parent="1">
          <mxGeometry width="50" height="50" relative="1" as="geometry">
            <mxPoint x="490" y="360" as="sourcePoint" />
            <mxPoint x="560" y="360" as="targetPoint" />
          </mxGeometry>
        </mxCell>
      </root>
    </mxGraphModel>
  </diagram>
</mxfile>
